<svg height="200" viewBox="-79 0 512 512" width="200" xmlns="http://www.w3.org/2000/svg">
    <style>
        .foo {
            fill: red;
        }

        .foo:hover {
            fill: green;
        }
    </style>
    <path class="foo" d="m339.585938 142.195312-97.234376-86.8125 11.878907-35.640624c1.523437-4.574219.757812-9.601563-2.0625-13.511719-2.816407-3.914063-7.347657-6.230469-12.167969-6.230469-22.953125 0-43.3125 6.898438-60.507812 20.503906-11.113282 8.792969-18.292969 18.335938-22.582032 24.675782-29.121094 1.304687-54.820312 9.714843-76.496094 25.050781-19.566406 13.84375-35.882812 33.390625-48.5 58.097656-21.789062 42.664063-27.3125 89.824219-29.96875 112.488281-.414062 3.535156-.878906 7.503906-1.160156 9.007813-1.800781 5.339843-.457031 11.304687 3.574219 15.363281 1.507813 1.515625 2.9375 2.886719 4.320313 4.210938 6.855468 6.574218 10.992187 10.539062 14.503906 22.574218 4.160156 14.265625 6.332031 36.890625 6.742187 70.632813-17.417969 6.210937-29.925781 22.867187-29.925781 42.394531 0 11.515625 4.355469 22.03125 11.496094 30-7.144532 7.96875-11.496094 18.484375-11.496094 30v32c0 8.285156 6.714844 15 15 15h270c8.285156 0 15-6.714844 15-15v-32c0-11.515625-4.355469-22.03125-11.496094-30 7.140625-7.96875 11.496094-18.484375 11.496094-30 0-19.554688-12.539062-36.226562-30-42.421875v-45.71875c0-25.625-16.261719-48.503906-40.460938-56.929687-20.386718-7.101563-28.519531-21.449219-31.988281-35.019532 13.96875-.542968 34.292969-3.085937 57.25-13.238281l10.242188 5.117187c33.738281 16.871094 67.242187 1.21875 81.640625-22.074218 11.785156-19.066406 8.910156-40.078125-7.097656-52.519532zm-84.585938 247.804688c8.269531 0 15 6.730469 15 15s-6.730469 15-15 15h-210c-8.269531 0-15-6.730469-15-15s6.730469-15 15-15zm15 92h-240v-17c0-8.269531 6.730469-15 15-15h210c8.269531 0 15 6.730469 15 15zm51.164062-303.054688c-5.910156 9.558594-22.726562 21.003907-42.707031 11.011719l-16.75-8.375c-4.222656-2.109375-9.191406-2.109375-13.414062 0-27.164063 13.582031-51.027344 13.609375-62.078125 13.417969l-40.609375-40.609375c-5.855469-5.855469-15.355469-5.855469-21.210938 0-5.859375 5.859375-5.859375 15.355469 0 21.214844l41.3125 41.3125c.738281 6.878906 2.546875 19.15625 8.792969 31.976562 9.078125 18.625 24.699219 32.234375 45.171875 39.363281 12.160156 4.234376 20.328125 15.726563 20.328125 28.601563v43.140625h-180.109375c-1.183594-77.449219-11.851563-94.078125-28.753906-110.613281.183593-1.492188.382812-3.171875.605469-5.078125 4.90625-41.875 19.832031-169.308594 133.257812-169.308594 3.871094 0 7.59375-1.496094 10.386719-4.179688 1.644531-1.578124 2.722656-3.246093 4.214843-5.550781 7.390626-11.429687 18.839844-25.699219 38.5-32.011719l-7.332031 22c-1.894531 5.679688-.226562 11.941407 4.238281 15.929688l105.019532 93.765625c.320312.285156.648437.554687.992187.8125 3.757813 2.816406 3.808594 7.253906.144531 13.179687zm0 0"/><path d="m210 135c0 8.285156-6.714844 15-15 15s-15-6.714844-15-15 6.714844-15 15-15 15 6.714844 15 15zm0 0"/>
</svg>